<?xml version="1.0" encoding="utf-8"?>
<svg xmlns="http://www.w3.org/2000/svg" viewBox="0 0 190 246" xmlns:bx="https://boxy-svg.com" width="190px" height="246px"><defs><bx:export><bx:file format="svg"/></bx:export></defs><path fill="#000040" fill-opacity=".7" d="M 6.685 1.552 C 8.985 1.752 12.585 1.752 14.687 1.552 C 16.687 1.352 14.787 1.152 10.385 1.152 C 5.985 1.152 4.285 1.352 6.685 1.552 M 0.285 134.352 C 0.285 139.252 0.385 141.452 0.585 139.152 C 0.785 136.852 0.785 132.752 0.585 130.152 C 0.385 127.552 0.285 129.352 0.285 134.352 M -0.015 145.452 C -0.015 146.552 0.285 146.852 0.585 146.052 C 0.885 145.352 0.785 144.452 0.485 144.152 C 0.185 143.752 -0.115 144.352 -0.015 145.452 M 0.185 163.352 C 0.185 165.552 0.385 166.352 0.585 165.052 C 0.785 163.852 0.785 162.052 0.585 161.052 C 0.285 160.152 0.085 161.152 0.185 163.352 M 36.187 185.552 C 38.787 185.752 42.887 185.752 45.187 185.552 C 47.487 185.352 45.387 185.252 40.387 185.252 C 35.487 185.252 33.587 185.352 36.187 185.552 M 116.187 195.352 C 116.187 197.552 116.387 198.352 116.587 197.052 C 116.787 195.852 116.787 194.052 116.587 193.052 C 116.287 192.152 116.087 193.152 116.187 195.352 M 0.285 218.852 C 0.285 224.652 0.385 226.952 0.585 224.052 C 0.785 221.252 0.785 216.452 0.585 213.552 C 0.385 210.752 0.285 213.052 0.285 218.852 M 55.187 234.352 C 55.187 238.752 55.387 240.452 55.587 238.052 C 55.787 235.752 55.787 232.152 55.587 230.052 C 55.387 228.052 55.187 229.952 55.187 234.352" style="stroke-width: 1;"/><g fill-opacity=".8" stroke-opacity=".8" stroke-width="0" transform="matrix(1, 0, 0, 1, -0.112268, 0.850991)" style=""><path d="M 42.3 0.7 C 54.2 0.9 73.8 0.9 85.8 0.7 C 97.7 0.6 87.9 0.5 64 0.5 C 40.1 0.5 30.3 0.6 42.3 0.7 M 1.4 24 C 1.4 36.9 1.6 42.2 1.7 35.7 C 1.9 29.3 1.9 18.7 1.7 12.2 C 1.6 5.8 1.4 11.1 1.4 24 M 114.3 1.7 C 115.2 1.9 116.6 1.9 117.3 1.7 C 117.9 1.4 117.2 1.2 115.5 1.2 C 113.9 1.2 113.3 1.4 114.3 1.7 M 120.8 2.7 C 121.4 2.9 122.6 2.9 123.3 2.7 C 123.9 2.4 123.4 2.2 122 2.2 C 120.6 2.2 120.1 2.4 120.8 2.7 M 125.8 3.7 C 126.5 4 127.4 3.9 127.7 3.6 C 128.1 3.3 127.5 3 126.4 3.1 C 125.3 3.1 125 3.4 125.8 3.7 M 129.8 4.7 C 130.5 5 131.4 4.9 131.7 4.6 C 132.1 4.3 131.5 4 130.4 4.1 C 129.3 4.1 129 4.4 129.8 4.7 M 141 8.5 C 142.4 9.3 144 9.9 144.5 9.9 C 145.1 9.9 144.4 9.3 143 8.5 C 141.6 7.7 140.1 7.1 139.5 7.1 C 139 7.1 139.6 7.7 141 8.5 M 151 13.6 C 165 22.9 172.6 31.7 180.1 47.1 C 182.3 51.7 183.8 54.4 183.4 53 C 181.1 44.3 171.4 29.4 163.3 22 C 157.8 16.9 148 10 146.3 10 C 145.9 10 148 11.6 151 13.6 M 145.2 41.6 C 146.2 41.9 147.1 43.5 147.3 45.3 C 147.7 48.4 147.8 48.4 147.6 45 C 147.5 42.3 147.1 41.5 145.5 41.3 C 144.1 41.2 144 41.3 145.2 41.6 M 138.5 43 C 137.2 43.5 137.1 43.9 138 43.9 C 138.8 43.9 140.4 43.5 141.5 43 C 142.8 42.5 142.9 42.1 142 42.1 C 141.2 42.1 139.6 42.5 138.5 43 M 127 46.5 C 125.1 47.2 124.2 47.8 125 47.8 C 125.8 47.8 128.1 47.2 130 46.5 C 131.9 45.8 132.8 45.2 132 45.2 C 131.2 45.2 128.9 45.8 127 46.5 M 115.5 50 C 114.2 50.5 114.1 50.9 115 50.9 C 115.8 50.9 117.4 50.5 118.5 50 C 119.8 49.5 119.9 49.1 119 49.1 C 118.2 49.1 116.6 49.5 115.5 50 M 107.3 53.7 C 106.8 54.8 108.2 56.7 112.1 60.1 L 117.5 64.8 L 115.5 67.1 C 99.7 85.7 70.1 116.1 56.1 128.2 C 40.7 141.6 18.5 157.7 4.5 165.7 C 2.3 166.9 1 168 1.6 168 C 3.4 168 25.4 153.6 36.5 145.2 C 48 136.6 61.5 125.2 70.9 116.5 C 76.8 110.9 116.7 67.9 118.3 65.4 C 118.7 64.7 116.8 62.5 113.5 60 C 108.1 55.8 106.8 53.6 109.3 52.7 C 110.2 52.3 110.2 52.1 109.2 52.1 C 108.5 52 107.7 52.7 107.3 53.7 M 146.3 61 C 146.3 64 146.5 65.3 146.7 63.7 C 146.9 62.2 146.9 59.8 146.7 58.2 C 146.5 56.7 146.3 58 146.3 61 M 184.1 57.6 C 184.1 58.7 184.4 59 184.7 58.2 C 185 57.5 184.9 56.6 184.6 56.3 C 184.3 55.9 184 56.5 184.1 57.6 M 185.1 61.6 C 185.1 62.7 185.4 63 185.7 62.2 C 186 61.5 185.9 60.6 185.6 60.3 C 185.3 59.9 185 60.5 185.1 61.6 M 186.2 66 C 186.2 67.4 186.4 67.9 186.7 67.2 C 186.9 66.6 186.9 65.4 186.7 64.7 C 186.4 64.1 186.2 64.6 186.2 66 M 187.2 71.5 C 187.2 73.1 187.4 73.7 187.7 72.7 C 187.9 71.8 187.9 70.4 187.7 69.7 C 187.4 69.1 187.2 69.8 187.2 71.5 M 145 77.2 C 144.7 79.8 144.9 81.5 145.3 81.1 C 145.8 80.6 146 78.5 145.8 76.4 L 145.5 72.5 L 145 77.2 Z M 115.1 92.8 C 74.9 137.2 44.3 162.9 10.5 180.7 C -1.7 187.1 -1.4 187.7 11 181.5 C 29.4 172.2 56.8 152.2 79.8 131.1 C 89.5 122.2 118.6 91.2 129.5 78.2 L 132.2 74.9 L 136.7 78.6 C 139.1 80.6 141.3 82 141.5 81.8 C 141.8 81.6 139.7 79.7 137 77.7 L 132.1 74 L 115.1 92.8 Z M 188.3 84.5 C 188.3 87.2 188.5 88.3 188.7 86.7 C 188.9 85.2 188.9 83 188.7 81.7 C 188.5 80.5 188.3 81.7 188.3 84.5 M 187.2 96.5 C 187.2 98.1 187.4 98.7 187.7 97.7 C 187.9 96.8 187.9 95.4 187.7 94.7 C 187.4 94.1 187.2 94.8 187.2 96.5 M 186.2 103 C 186.2 104.4 186.4 104.9 186.7 104.2 C 186.9 103.6 186.9 102.4 186.7 101.7 C 186.4 101.1 186.2 101.6 186.2 103 M 185.1 107.6 C 185.1 108.7 185.4 109 185.7 108.2 C 186 107.5 185.9 106.6 185.6 106.3 C 185.3 105.9 185 106.5 185.1 107.6 M 184.1 111.6 C 184.1 112.7 184.4 113 184.7 112.2 C 185 111.5 184.9 110.6 184.6 110.3 C 184.3 109.9 184 110.5 184.1 111.6 M 115.4 128 C 115.4 136 115.6 139.2 115.7 135.2 C 115.9 131.3 115.9 124.7 115.7 120.7 C 115.6 116.8 115.4 120 115.4 128 M 180.7 120.5 C 178.3 125.5 178.7 126.3 181.1 121.7 C 182.2 119.5 183 117.6 182.8 117.4 C 182.5 117.2 181.6 118.6 180.7 120.5"/><path d="M 174.6 132 C 170 139.4 160.1 149.6 152.6 154.6 C 149.5 156.6 147 158.5 147 158.7 C 147 159.8 157.8 152.2 162.9 147.5 C 167.9 143 174.9 134.1 177.4 129.2 C 180 124.1 178.6 125.5 174.6 132 M 70.4 151.4 C 70.1 152.1 70.1 155.6 70.3 159.1 L 70.6 165.5 L 70.8 158.3 L 71 151.1 L 86.3 150.7 L 101.5 150.4 L 86.2 150.2 C 74.1 150 70.8 150.3 70.4 151.4 M 101.5 203 C 101.5 225.3 101.6 234.4 101.7 223.3 C 101.9 212.1 101.9 193.9 101.7 182.8 C 101.6 171.6 101.5 180.7 101.5 203 M 24.2 201.2 C 24.4 218.8 24.8 216.8 25.2 195.7 C 25.4 189.3 25.2 184 24.8 184 C 24.3 184 24.1 191.8 24.2 201.2 M 55.4 202 C 55.4 212.2 55.6 216.3 55.7 211.2 C 55.9 206.2 55.9 197.8 55.7 192.7 C 55.6 187.7 55.4 191.8 55.4 202 M 116.2 224.2 L 116 242.9 L 109.3 243.3 L 102.5 243.6 L 109.3 243.8 C 114 243.9 116.2 243.6 116.6 242.7 C 116.8 242 116.9 233.3 116.7 223.5 L 116.5 205.5 L 116.2 224.2 Z M 55.3 242 C 55.6 243.2 57.4 243.5 63.6 243.6 L 71.5 243.6 L 64 243.3 C 59.8 243.1 56.2 242.4 55.7 241.7 C 55.1 240.9 55 240.9 55.3 242 M 1.9 243.3 C 2.3 243.7 7.8 243.9 14.1 243.8 L 25.5 243.5 L 13.3 243 C 6.6 242.7 1.4 242.9 1.9 243.3"/></g><path fill="#000040" fill-opacity=".8" d="M 0.185 154.352 C 0.185 157.652 0.385 158.852 0.585 157.052 C 0.785 155.252 0.785 152.552 0.585 151.052 C 0.385 149.552 0.185 151.052 0.185 154.352 M 55.087 223.852 C 55.087 225.752 55.287 226.552 55.587 225.552 C 55.787 224.652 55.787 223.052 55.587 222.052 C 55.287 221.152 55.087 221.952 55.087 223.852" style="stroke-width: 1;"/><path fill-opacity=".7" d="M 116.087 201.852 C 116.087 203.752 116.287 204.552 116.587 203.552 C 116.787 202.652 116.787 201.052 116.587 200.052 C 116.287 199.152 116.087 199.952 116.087 201.852" style="stroke-width: 1;"/><path fill="#004040" fill-opacity=".6" d="M 0.185 108.852 C 0.185 112.452 0.385 113.852 0.585 112.052 C 0.785 110.352 0.785 107.352 0.585 105.552 C 0.385 103.852 0.185 105.252 0.185 108.852 M 116.187 187.352 C 116.187 189.552 116.387 190.352 116.587 189.052 C 116.787 187.852 116.787 186.052 116.587 185.052 C 116.287 184.152 116.087 185.152 116.187 187.352 M 0.185 196.352 C 0.185 198.552 0.385 199.352 0.585 198.052 C 0.785 196.852 0.785 195.052 0.585 194.052 C 0.285 193.152 0.085 194.152 0.185 196.352 M 0.085 204.352 C 0.085 205.952 0.285 206.552 0.585 205.552 C 0.785 204.652 0.785 203.252 0.585 202.552 C 0.285 201.952 0.085 202.652 0.085 204.352 M -0.015 232.452 C -0.015 233.552 0.285 233.852 0.585 233.052 C 0.885 232.352 0.785 231.452 0.485 231.152 C 0.185 230.752 -0.115 231.352 -0.015 232.452" style="stroke-width: 1;"/><path fill="#404040" fill-opacity=".5" d="M -0.015 97.452 C -0.015 98.552 0.285 98.852 0.585 98.052 C 0.885 97.352 0.785 96.452 0.485 96.152 C 0.185 95.752 -0.115 96.352 -0.015 97.452 M 116.087 181.852 C 116.087 183.252 116.287 183.752 116.587 183.052 C 116.787 182.452 116.787 181.252 116.587 180.552 C 116.287 179.952 116.087 180.452 116.087 181.852 M 0.085 189.352 C 0.085 190.952 0.285 191.552 0.585 190.552 C 0.785 189.652 0.785 188.252 0.585 187.552 C 0.285 186.952 0.085 187.652 0.085 189.352 M 71.187 237.352 C 71.187 239.552 71.387 240.352 71.587 239.052 C 71.787 237.852 71.787 236.052 71.587 235.052 C 71.287 234.152 71.087 235.152 71.187 237.352" style="stroke-width: 1;"/><path fill="#408080" fill-opacity=".4" d="M 0.185 82.352 C 0.185 85.052 0.385 86.152 0.585 84.552 C 0.785 83.052 0.785 80.852 0.585 79.552 C 0.385 78.352 0.185 79.552 0.185 82.352 M 125.687 115.552 C 127.987 115.752 131.787 115.752 134.187 115.552 C 136.487 115.352 134.587 115.152 129.887 115.152 C 125.187 115.152 123.287 115.352 125.687 115.552 M 116.087 171.852 C 116.087 173.252 116.287 173.752 116.587 173.052 C 116.787 172.452 116.787 171.252 116.587 170.552 C 116.287 169.952 116.087 170.452 116.087 171.852 M 70.987 220.452 C 70.987 221.552 71.287 221.852 71.587 221.052 C 71.887 220.352 71.787 219.452 71.487 219.152 C 71.187 218.752 70.887 219.352 70.987 220.452 M 25.087 240.852 C 25.087 242.752 25.287 243.552 25.587 242.552 C 25.787 241.652 25.787 240.052 25.587 239.052 C 25.287 238.152 25.087 238.952 25.087 240.852" style="stroke-width: 1;"/><path fill="gray" fill-opacity=".3" d="M 0.085 74.352 C 0.085 75.952 0.285 76.552 0.585 75.552 C 0.785 74.652 0.785 73.252 0.585 72.552 C 0.285 71.952 0.085 72.652 0.085 74.352 M 146.087 126.852 C 146.087 128.752 146.287 129.552 146.587 128.552 C 146.787 127.652 146.787 126.052 146.587 125.052 C 146.287 124.152 146.087 124.952 146.087 126.852 M 115.987 165.452 C 115.987 166.552 116.287 166.852 116.587 166.052 C 116.887 165.352 116.787 164.452 116.487 164.152 C 116.187 163.752 115.887 164.352 115.987 165.452 M 71.187 211.352 C 71.187 213.552 71.387 214.352 71.587 213.052 C 71.787 211.852 71.787 210.052 71.587 209.052 C 71.287 208.152 71.087 209.152 71.187 211.352" style="stroke-width: 1;"/><path d="M 1.585 36.452 C 0.685 81.352 0.685 167.852 1.585 167.852 C 2.985 167.852 10.885 162.652 10.885 161.752 C 10.885 161.152 11.285 160.952 11.685 161.252 C 13.287 162.252 44.787 139.452 54.787 129.952 C 57.587 127.452 60.187 125.152 60.587 124.852 C 60.987 124.552 61.287 123.952 61.087 123.552 C 60.987 123.052 61.187 122.952 61.687 123.252 C 62.087 123.452 69.687 116.552 78.387 107.752 C 87.187 99.052 94.087 91.852 93.887 91.852 C 93.587 91.852 97.087 87.952 101.687 83.152 C 106.287 78.252 111.687 72.352 113.687 69.952 L 117.287 65.652 L 111.987 60.952 C 107.687 57.152 106.787 55.852 107.287 54.052 C 107.787 52.652 108.487 52.152 109.587 52.552 C 110.587 52.952 110.987 52.752 110.587 52.152 C 110.087 51.452 110.687 51.252 112.087 51.652 C 113.487 51.952 113.987 51.852 113.487 51.052 C 112.987 50.252 113.487 49.952 114.587 50.052 C 118.687 50.352 120.987 49.852 120.287 48.652 C 119.887 47.952 119.987 47.852 120.687 48.252 C 121.987 49.052 139.987 43.852 139.387 42.852 C 139.187 42.552 140.887 42.252 143.187 42.252 L 147.387 42.352 L 146.987 52.852 C 146.787 58.652 146.387 67.652 145.987 72.852 C 145.387 81.752 145.287 82.352 143.187 82.652 C 141.687 82.852 139.287 81.652 136.587 79.452 L 132.187 75.852 L 126.787 82.052 C 123.787 85.452 121.487 88.652 121.587 89.052 C 121.787 89.452 121.587 89.752 121.087 89.652 C 120.687 89.452 115.487 94.652 109.587 101.152 C 103.587 107.552 98.987 112.852 99.287 112.852 C 99.587 112.852 94.287 118.052 87.587 124.452 C 73.987 137.552 55.787 152.952 45.587 160.252 C 41.887 162.852 38.887 165.552 38.887 166.152 C 38.887 166.652 38.587 166.952 38.287 166.552 C 37.987 166.252 33.387 168.852 28.087 172.352 C 22.687 175.752 14.487 180.552 9.585 182.952 L 0.885 187.352 L 1.085 215.352 L 1.385 243.352 L 13.185 243.652 L 24.987 243.952 L 24.287 214.352 L 23.587 184.852 L 55.887 184.852 L 55.887 243.852 L 71.087 243.852 L 70.787 197.552 L 70.387 151.352 L 85.487 151.052 L 100.587 150.752 L 101.187 160.552 C 101.587 165.952 101.887 186.852 101.887 207.052 L 101.887 243.852 L 116.187 243.852 L 115.687 179.352 L 115.187 114.852 L 146.887 114.852 L 147.087 136.852 L 147.387 158.852 L 152.687 155.252 C 168.387 144.752 180.487 126.952 184.987 108.152 C 186.087 103.352 186.887 98.452 186.587 97.152 C 186.387 95.852 186.587 94.852 186.987 94.852 C 188.687 94.852 187.887 76.752 185.887 66.652 C 183.887 56.952 177.587 40.852 175.787 40.852 C 175.287 40.852 174.987 40.552 175.087 40.052 C 175.587 38.752 171.487 32.952 170.587 33.552 C 169.987 33.852 169.887 33.652 170.287 32.952 C 171.287 31.452 158.287 18.652 153.887 16.652 C 152.287 15.952 150.887 15.052 150.887 14.652 C 150.887 13.352 137.187 7.552 127.887 5.052 L 118.387 2.452 L 60.287 2.052 L 2.185 1.752 L 1.585 36.452 Z M 114.587 174.052 C 114.287 174.852 113.987 174.552 113.987 173.452 C 113.887 172.352 114.187 171.752 114.487 172.152 C 114.787 172.452 114.887 173.352 114.587 174.052" style="stroke-width: 1;"/><path fill="#80BFBF" fill-opacity=".1" d="M 0.185 58.352 C 0.185 60.552 0.385 61.352 0.585 60.052 C 0.785 58.852 0.785 57.052 0.585 56.052 C 0.285 55.152 0.085 56.152 0.185 58.352 M 146.187 147.352 C 146.187 150.652 146.387 151.852 146.587 150.052 C 146.787 148.252 146.787 145.552 146.587 144.052 C 146.387 142.552 146.187 144.052 146.187 147.352 M 163.787 147.552 C 162.487 149.152 162.587 149.252 164.187 147.952 C 165.787 146.652 166.287 145.852 165.487 145.852 C 165.287 145.852 164.487 146.652 163.787 147.552 M 116.087 149.352 C 116.087 150.952 116.287 151.552 116.587 150.552 C 116.787 149.652 116.787 148.252 116.587 147.552 C 116.287 146.952 116.087 147.652 116.087 149.352 M 71.187 185.352 C 71.187 189.752 71.387 191.452 71.587 189.052 C 71.787 186.752 71.787 183.152 71.587 181.052 C 71.387 179.052 71.187 180.952 71.187 185.352" style="stroke-width: 1;"/><path fill="#8080BF" fill-opacity=".2" d="M 0.085 65.852 C 0.085 67.752 0.285 68.552 0.585 67.552 C 0.785 66.652 0.785 65.052 0.585 64.052 C 0.285 63.152 0.085 63.952 0.085 65.852 M 116.087 155.852 C 116.087 157.252 116.287 157.752 116.587 157.052 C 116.787 156.452 116.787 155.252 116.587 154.552 C 116.287 153.952 116.087 154.452 116.087 155.852" style="stroke-width: 1;"/><path fill="#004040" fill-opacity=".7" d="M 0.185 121.852 C 0.185 124.352 0.385 125.352 0.585 124.052 C 0.785 122.852 0.785 120.852 0.585 119.552 C 0.385 118.352 0.185 119.352 0.185 121.852" style="stroke-width: 1;"/><path fill="gray" fill-opacity=".2" d="M -0.015 70.452 C -0.015 71.552 0.285 71.852 0.585 71.052 C 0.885 70.352 0.785 69.452 0.485 69.152 C 0.185 68.752 -0.115 69.352 -0.015 70.452 M 146.187 133.852 C 146.187 136.352 146.387 137.352 146.587 136.052 C 146.787 134.852 146.787 132.852 146.587 131.552 C 146.387 130.352 146.187 131.352 146.187 133.852 M 116.087 159.852 C 116.087 161.252 116.287 161.752 116.587 161.052 C 116.787 160.452 116.787 159.252 116.587 158.552 C 116.287 157.952 116.087 158.452 116.087 159.852 M 71.087 205.352 C 71.087 206.952 71.287 207.552 71.587 206.552 C 71.787 205.652 71.787 204.252 71.587 203.552 C 71.287 202.952 71.087 203.652 71.087 205.352" style="stroke-width: 1;"/><path fill="#000040" d="M 113.987 173.452 C 113.987 174.552 114.287 174.852 114.587 174.052 C 114.887 173.352 114.787 172.452 114.487 172.152 C 114.187 171.752 113.887 172.352 113.987 173.452" style="stroke-width: 1;"/><path fill="#8080BF" fill-opacity=".1" d="M 25.087 226.352 C 25.087 227.952 25.287 228.552 25.587 227.552 C 25.787 226.652 25.787 225.252 25.587 224.552 C 25.287 223.952 25.087 224.652 25.087 226.352" style="stroke-width: 1;"/><path fill="#408080" fill-opacity=".3" d="M 115.987 168.452 C 115.987 169.552 116.287 169.852 116.587 169.052 C 116.887 168.352 116.787 167.452 116.487 167.152 C 116.187 166.752 115.887 167.352 115.987 168.452 M 71.087 216.852 C 71.087 218.252 71.287 218.752 71.587 218.052 C 71.787 217.452 71.787 216.252 71.587 215.552 C 71.287 214.952 71.087 215.452 71.087 216.852 M 25.087 235.852 C 25.087 237.252 25.287 237.752 25.587 237.052 C 25.787 236.452 25.787 235.252 25.587 234.552 C 25.287 233.952 25.087 234.452 25.087 235.852" style="stroke-width: 1;"/><path fill="#404080" fill-opacity=".5" d="M 0.185 91.852 C 0.185 94.352 0.385 95.352 0.585 94.052 C 0.785 92.852 0.785 90.852 0.585 89.552 C 0.385 88.352 0.185 89.352 0.185 91.852 M 116.087 177.852 C 116.087 179.252 116.287 179.752 116.587 179.052 C 116.787 178.452 116.787 177.252 116.587 176.552 C 116.287 175.952 116.087 176.452 116.087 177.852 M -0.015 237.452 C -0.015 238.552 0.285 238.852 0.585 238.052 C 0.885 237.352 0.785 236.452 0.485 236.152 C 0.185 235.752 -0.115 236.352 -0.015 237.452" style="stroke-width: 1;"/></svg>