<svg xmlns="http://www.w3.org/2000/svg" version="1.0" viewBox="0 0 830 244"><path fill="#000040" fill-opacity=".7" d="M6.8.7c2.3.2 5.9.2 8 0 2-.2.1-.4-4.3-.4S4.4.5 6.8.7m258 72c.7.3 1.6.2 1.9-.1.4-.3-.2-.6-1.3-.5-1.1 0-1.4.3-.6.6M.4 133.5c0 4.9.1 7.1.3 4.8s.2-6.4 0-9-.3-.8-.3 4.2m-.3 11.1c0 1.1.3 1.4.6.6.3-.7.2-1.6-.1-1.9-.3-.4-.6.2-.5 1.3m.2 17.9c0 2.2.2 3 .4 1.7.2-1.2.2-3 0-4-.3-.9-.5.1-.4 2.3m608.8 18.1c0 1.1.3 1.4.6.6.3-.7.2-1.6-.1-1.9-.3-.4-.6.2-.5 1.3m-572.8 4.1c2.6.2 6.7.2 9 0s.2-.3-4.8-.3c-4.9 0-6.8.1-4.2.3m80 9.8c0 2.2.2 3 .4 1.7.2-1.2.2-3 0-4-.3-.9-.5.1-.4 2.3M.4 218c0 5.8.1 8.1.3 5.2.2-2.8.2-7.6 0-10.5-.2-2.8-.3-.5-.3 5.3m54.9 15.5c0 4.4.2 6.1.4 3.7.2-2.3.2-5.9 0-8-.2-2-.4-.1-.4 4.3"/><g fill-opacity=".8" stroke-opacity=".8" stroke-width="0"><path d="M42.3.7c11.9.2 31.5.2 43.5 0C97.7.6 87.9.5 64 .5S30.3.6 42.3.7M1.4 24c0 12.9.2 18.2.3 11.7.2-6.4.2-17 0-23.5-.1-6.4-.3-1.1-.3 11.8M114.3 1.7c.9.2 2.3.2 3 0 .6-.3-.1-.5-1.8-.5-1.6 0-2.2.2-1.2.5m6.5 1c.6.2 1.8.2 2.5 0 .6-.3.1-.5-1.3-.5s-1.9.2-1.2.5m5 1c.7.3 1.6.2 1.9-.1.4-.3-.2-.6-1.3-.5-1.1 0-1.4.3-.6.6m4 1c.7.3 1.6.2 1.9-.1.4-.3-.2-.6-1.3-.5-1.1 0-1.4.3-.6.6M141 8.5c1.4.8 3 1.4 3.5 1.4.6 0-.1-.6-1.5-1.4s-2.9-1.4-3.5-1.4c-.5 0 .1.6 1.5 1.4m10 5.1c14 9.3 21.6 18.1 29.1 33.5 2.2 4.6 3.7 7.3 3.3 5.9-2.3-8.7-12-23.6-20.1-31-5.5-5.1-15.3-12-17-12-.4 0 1.7 1.6 4.7 3.6m-5.8 28c1 .3 1.9 1.9 2.1 3.7.4 3.1.5 3.1.3-.3-.1-2.7-.5-3.5-2.1-3.7q-2.1-.15-.3.3m-6.7 1.4c-1.3.5-1.4.9-.5.9.8 0 2.4-.4 3.5-.9 1.3-.5 1.4-.9.5-.9-.8 0-2.4.4-3.5.9M127 46.5c-1.9.7-2.8 1.3-2 1.3s3.1-.6 5-1.3 2.8-1.3 2-1.3-3.1.6-5 1.3M115.5 50c-1.3.5-1.4.9-.5.9.8 0 2.4-.4 3.5-.9 1.3-.5 1.4-.9.5-.9-.8 0-2.4.4-3.5.9m-8.2 3.7c-.5 1.1.9 3 4.8 6.4l5.4 4.7-2 2.3c-15.8 18.6-45.4 49-59.4 61.1-15.4 13.4-37.6 29.5-51.6 37.5-2.2 1.2-3.5 2.3-2.9 2.3 1.8 0 23.8-14.4 34.9-22.8 11.5-8.6 25-20 34.4-28.7 5.9-5.6 45.8-48.6 47.4-51.1.4-.7-1.5-2.9-4.8-5.4-5.4-4.2-6.7-6.4-4.2-7.3.9-.4.9-.6-.1-.6-.7-.1-1.5.6-1.9 1.6m39 7.3c0 3 .2 4.3.4 2.7.2-1.5.2-3.9 0-5.5-.2-1.5-.4-.2-.4 2.8m37.8-3.4c0 1.1.3 1.4.6.6.3-.7.2-1.6-.1-1.9-.3-.4-.6.2-.5 1.3m1 4c0 1.1.3 1.4.6.6.3-.7.2-1.6-.1-1.9-.3-.4-.6.2-.5 1.3m1.1 4.4c0 1.4.2 1.9.5 1.2.2-.6.2-1.8 0-2.5-.3-.6-.5-.1-.5 1.3m204.1 1.7c.9.2 2.3.2 3 0 .6-.3-.1-.5-1.8-.5-1.6 0-2.2.2-1.2.5m-7.4 3.2c-1.6 1.6-2.9 3.5-2.9 4.3.1.7.7.1 1.6-1.4.8-1.5 2.7-3.4 4.2-4.2 1.5-.9 2.1-1.5 1.4-1.6-.8 0-2.7 1.3-4.3 2.9m14.5-.8c1.4 1.1 3.3 3 4.1 4.2s1.5 1.6 1.5.8c0-1.5-5.7-7.1-7.2-7.1-.6 0 .1.9 1.6 2.1m413.4.2c-4.9 4.2-6.1 9.3-3.3 14.7 1.5 2.9 5.1 6 7 6 .5-.1-.2-.7-1.7-1.6-7.7-4.1-7.5-15.8.4-19.7 1.8-.9 2.6-1.7 1.8-1.7s-2.7 1-4.2 2.3m11.8-.4c1.8 1.1 3.9 3 4.8 4.2.9 1.3 1.6 1.9 1.6 1.4-.1-1.5-3.3-5.1-5.7-6.4-3.6-1.8-4-1.2-.7.8m-635.4 1.6c0 1.6.2 2.2.5 1.2.2-.9.2-2.3 0-3-.3-.6-.5.1-.5 1.8m37.3 56.5c0 31.1.1 43.8.2 28.3.2-15.6.2-41 0-56.5-.1-15.6-.2-2.9-.2 28.2m3.8-55.3c1.5.2 3.9.2 5.5 0 1.5-.2.2-.4-2.8-.4s-4.3.2-2.7.4m13.5 0c.7.3 1.6.2 1.9-.1.4-.3-.2-.6-1.3-.5-1.1 0-1.4.3-.6.6m8 0c2.9.2 7.4.2 10 0s.2-.3-5.3-.3-7.6.1-4.7.3M724.5 128c0 31.1.1 43.8.2 28.3.2-15.6.2-41 0-56.5-.1-15.6-.2-2.9-.2 28.2M145 77.2c-.3 2.6-.1 4.3.3 3.9.5-.5.7-2.6.5-4.7l-.3-3.9zm125.8-3.5c.7.3 1.6.2 1.9-.1.4-.3-.2-.6-1.3-.5-1.1 0-1.4.3-.6.6M115.1 92.8c-40.2 44.4-70.8 70.1-104.6 87.9-12.2 6.4-11.9 7 .5.8 18.4-9.3 45.8-29.3 68.8-50.4 9.7-8.9 38.8-39.9 49.7-52.9l2.7-3.3 4.5 3.7c2.4 2 4.6 3.4 4.8 3.2.3-.2-1.8-2.1-4.5-4.1l-4.9-3.7zm160.7-18.1c.7.3 1.6.2 1.9-.1.4-.3-.2-.6-1.3-.5-1.1 0-1.4.3-.6.6M287 79c5.3 2.9 9.5 6.7 13.3 12l1.7 2.5-1.4-3.1c-1.8-3.8-8.2-9.7-13.5-12.4-6.2-3.1-6.3-2.3-.1 1m92.2.5c0 1.6.2 2.2.5 1.2.2-.9.2-2.3 0-3-.3-.6-.5.1-.5 1.8m449.9-.2c-.2 4-2.7 8.4-5.9 10.1-1.5.9-2.2 1.5-1.6 1.6 3.7.1 9-7.7 8.1-12.2-.4-2-.4-2-.6.5m-640.8 5.2c0 2.7.2 3.8.4 2.2.2-1.5.2-3.7 0-5-.2-1.2-.4 0-.4 2.8M402 83.1c0 .6-1.4 2.4-3.1 4s-2.7 2.9-2.1 2.9c1.2 0 6.2-5.7 6.2-7.1 0-.5-.2-.9-.5-.9s-.5.5-.5 1.1m-22 .5c.1 2.4 6.3 7.4 9 7.4.8-.1.1-.7-1.6-1.4-1.7-.8-4-2.6-5.2-4.1s-2.2-2.4-2.2-1.9M244 110v20l11.8-.2 11.7-.2-11.2-.3-11.3-.4V91.1l10.8-.4 10.7-.3-11.2-.2L244 90zm512.8-19.3c6.8.2 17.6.2 24 0 6.4-.1.9-.3-12.3-.3s-18.5.2-11.7.3m-488 1c.7.3 1.6.2 1.9-.1.4-.3-.2-.6-1.3-.5-1.1 0-1.4.3-.6.6m548 0c.6.2 1.8.2 2.5 0 .6-.3.1-.5-1.3-.5s-1.9.2-1.2.5m-541.6 2.5c2.3 1.3 4.6 3.8 5.8 6.2 1.1 2.3 2 3.4 2 2.6 0-2.6-3.8-7.9-6.9-9.5-4.5-2.3-5.1-1.8-.9.7m-88 2.3c0 1.6.2 2.2.5 1.2.2-.9.2-2.3 0-3-.3-.6-.5.1-.5 1.8m114.8-2c0 .5.5 1.7 1 2.5s1 1 1 .5c0-.6-.5-1.7-1-2.5s-1-1.1-1-.5m2.1 6.1c0 1.1.3 1.4.6.6.3-.7.2-1.6-.1-1.9-.3-.4-.6.2-.5 1.3m154.2.1c1.5.2 3.9.2 5.5 0 1.5-.2.2-.4-2.8-.4s-4.3.2-2.7.4m50 0c1.5.2 3.9.2 5.5 0 1.5-.2.2-.4-2.8-.4s-4.3.2-2.7.4m164 0c1.5.2 3.9.2 5.5 0 1.5-.2.2-.4-2.8-.4s-4.3.2-2.7.4M186.2 103c0 1.4.2 1.9.5 1.2.2-.6.2-1.8 0-2.5-.3-.6-.5-.1-.5 1.3m170.6-1.3c.6.2 1.8.2 2.5 0 .6-.3.1-.5-1.3-.5s-1.9.2-1.2.5m9 0c.6.2 1.8.2 2.5 0 .6-.3.1-.5-1.3-.5s-1.9.2-1.2.5m103 0c.7.3 1.6.2 1.9-.1.4-.3-.2-.6-1.3-.5-1.1 0-1.4.3-.6.6m34 0c.7.3 1.6.2 1.9-.1.4-.3-.2-.6-1.3-.5-1.1 0-1.4.3-.6.6m18.8.8c5.6 2.1 11.7 7.5 14.3 12.7 1.2 2.4 1.9 3.2 1.5 1.8-1.4-5.8-10.8-14.4-16.9-15.5-2.2-.4-1.9-.1 1.1 1m143.2-.8c.7.3 1.6.2 1.9-.1.4-.3-.2-.6-1.3-.5-1.1 0-1.4.3-.6.6m19 0c.7.3 1.6.2 1.9-.1.4-.3-.2-.6-1.3-.5-1.1 0-1.4.3-.6.6M318.5 143c0 22.8.1 32.2.2 20.8.2-11.5.2-30.1 0-41.5-.1-11.5-.2-2.1-.2 20.7m28.4-38.1c-2.4 1.5-5.3 4.3-6.3 6.2-1.7 3.1-1.6 3.1 2-1 2.1-2.4 5.6-5.2 7.8-6.2 2.3-1 3.4-1.9 2.5-1.9-.8 0-3.5 1.3-6 2.9m34.6 38.1c0 22.8.1 32.2.2 20.8.2-11.5.2-30.1 0-41.5-.1-11.5-.2-2.1-.2 20.7m20 0c0 22.8.1 32.2.2 20.8.2-11.5.2-30.1 0-41.5-.1-11.5-.2-2.1-.2 20.7m17 0c0 22.8.1 32.2.2 20.8.2-11.5.2-30.1 0-41.5-.1-11.5-.2-2.1-.2 20.7m18.8-36.5c0 2.7.2 3.8.4 2.2.2-1.5.2-3.7 0-5-.2-1.2-.4 0-.4 2.8m7.5-2c-2.1 1.4-4.3 3.5-4.9 4.8-.8 1.5 0 1.1 2.7-1.5 2.2-2 5-4.1 6.4-4.7 1.4-.5 1.8-1 1-1-.9-.1-3.2 1-5.2 2.4m30.3-.5c2 1.1 5.3 3.9 7.3 6.2 1.9 2.4 3.6 4 3.6 3.6 0-2.5-10.9-11.9-13.7-11.8-.4.1.8 1 2.8 2m19.1 1c-2.3 1.6-4.8 4.4-5.7 6.2-1.4 3-1.4 3.1 0 1.3 3.7-4.7 7.1-7.9 10-9.1 1.6-.7 2.3-1.3 1.4-1.4-.9 0-3.5 1.3-5.7 3m60.2 26c0 16.2.2 22.9.3 14.7.2-8.1.2-21.3 0-29.5-.1-8.1-.3-1.4-.3 14.8m74.1 6c0 19.5.1 27.5.2 17.8.2-9.8.2-25.8 0-35.5-.1-9.8-.2-1.8-.2 17.7m179 6c0 22.8.1 32.2.2 20.8.2-11.5.2-30.1 0-41.5-.1-11.5-.2-2.1-.2 20.7m20 0c0 22.8.1 32.2.2 20.8.2-11.5.2-30.1 0-41.5-.1-11.5-.2-2.1-.2 20.7m-173.1-37.4c-4 2.6-7.8 7.2-8.9 10.9-.3 1.1.1.6 1.1-1 2.4-4.4 6.4-8.4 10.4-10.5 1.9-1.1 3-1.9 2.5-2-.6 0-2.9 1.2-5.1 2.6m39.7.3c5 3.2 7.9 6.3 10.2 10.6.9 1.6 1.6 2.6 1.7 2.1 0-.5-1.1-2.8-2.5-5.2-2.2-3.8-10.4-10.4-12.9-10.4-.5 0 1 1.3 3.5 2.9M283.3 110c0 3 .2 4.3.4 2.7.2-1.5.2-3.9 0-5.5-.2-1.5-.4-.2-.4 2.8m22-.5c0 2.7.2 3.8.4 2.2.2-1.5.2-3.7 0-5-.2-1.2-.4 0-.4 2.8m-120.2-1.9c0 1.1.3 1.4.6.6.3-.7.2-1.6-.1-1.9-.3-.4-.6.2-.5 1.3m-1 4c0 1.1.3 1.4.6.6.3-.7.2-1.6-.1-1.9-.3-.4-.6.2-.5 1.3m153 1c0 1.1.3 1.4.6.6.3-.7.2-1.6-.1-1.9-.3-.4-.6.2-.5 1.3M115.4 128c0 8 .2 11.2.3 7.2.2-3.9.2-10.5 0-14.5-.1-3.9-.3-.7-.3 7.3m557.9-12.3c1.5.2 3.7.2 5 0 1.2-.2 0-.4-2.8-.4-2.7 0-3.8.2-2.2.4m-369.2 1.9c0 1.1.3 1.4.6.6.3-.7.2-1.6-.1-1.9-.3-.4-.6.2-.5 1.3m361.4.9c-1.4 1.3-2.5 3-2.5 3.7.1.7.7.2 1.4-1.1s2.4-3 3.7-3.7 1.8-1.3 1.1-1.4c-.7 0-2.4 1.1-3.7 2.5m16.5-1.8c.8.3 2.5 1.5 3.8 2.6 1.2 1.1 2.2 1.8 2.2 1.4 0-1.3-4.4-4.7-5.9-4.6-1.4 0-1.4.1-.1.6m-501.3 3.8c-2.4 5-2 5.8.4 1.2 1.1-2.2 1.9-4.1 1.7-4.3-.3-.2-1.2 1.2-2.1 3.1M281 120c-.7 1.7-2.9 4.2-4.9 5.6-2 1.3-3.1 2.4-2.5 2.4 2.9 0 10.6-9.1 9.1-10.6-.2-.3-1 .9-1.7 2.6m169.3-2.3c.9.2 2.3.2 3 0 .6-.3-.1-.5-1.8-.5-1.6 0-2.2.2-1.2.5m5.5 0c.6.2 1.8.2 2.5 0 .6-.3.1-.5-1.3-.5s-1.9.2-1.2.5m47.5 0c.9.2 2.5.2 3.5 0 .9-.3.1-.5-1.8-.5s-2.7.2-1.7.5m-58.7 1.8c-2.5 1.9-5.6 6.6-5.6 8.5.1.8.7.1 1.4-1.5.7-1.7 2.8-4.3 4.5-5.8 3.4-2.8 3.1-3.8-.3-1.2m17.6.2c1.5 1 3.5 3.2 4.5 5 .9 1.8 1.9 3.1 2.1 2.9s-.4-1.8-1.2-3.4c-1.6-3.1-5.2-6.2-7.1-6.2-.5 0 .2.8 1.7 1.7m31.7 2.2c-2.2 2.1-3.9 4.7-3.9 5.7 0 1.2.6.7 1.8-1.6.9-1.9 3.2-4.5 5.1-5.7 1.9-1.3 2.8-2.3 2.1-2.3s-3 1.7-5.1 3.9m17.6-2.8c1.1.6 3.1 2.3 4.3 3.8 2 2.2 2.2 2.2 1.3.4-1.2-2.4-4.9-5.3-6.6-5.3-.5 0-.1.5 1 1.1m-154.7.6c1.7.2 4.7.2 6.5 0 1.7-.2.3-.4-3.3-.4s-5 .2-3.2.4m287.3.9c0 1.1.3 1.4.6.6.3-.7.2-1.6-.1-1.9-.3-.4-.6.2-.5 1.3m-342.5 4.1c-2.4 5.7-7.6 11.7-13.5 15.5-2.5 1.5-4 2.8-3.5 2.8 1.7 0 9.9-6.2 12.6-9.5 3-3.6 7-11.3 6.6-12.6-.2-.5-1.2 1.2-2.2 3.8m44.1-2.2c-2 1.4-4.4 3.9-5.2 5.5-2.4 4.6-1.7 4.9 1 .4 1.6-2.7 4-5 6.7-6.3 2.4-1.1 3.6-2.1 2.8-2.1-.9 0-3.2 1.1-5.3 2.5m192.4-.9c0 1.1.3 1.4.6.6.3-.7.2-1.6-.1-1.9-.3-.4-.6.2-.5 1.3m168 0c0 1.1.3 1.4.6.6.3-.7.2-1.6-.1-1.9-.3-.4-.6.2-.5 1.3m80.3 8.4c0 5.2.1 7.4.3 4.7.2-2.6.2-6.8 0-9.5-.2-2.6-.3-.4-.3 4.8m-98.4-6.8c0 1.6 1 1.8 8.8 1.6l8.7-.2-8-.3c-4.7-.3-8.2-.9-8.7-1.6-.5-.8-.8-.6-.8.5"/><path d="M174.6 132c-4.6 7.4-14.5 17.6-22 22.6-3.1 2-5.6 3.9-5.6 4.1 0 1.1 10.8-6.5 15.9-11.2 5-4.5 12-13.4 14.5-18.3 2.6-5.1 1.2-3.7-2.8 2.8m364.8 23c0 16.2.2 22.9.3 14.7.2-8.1.2-21.3 0-29.5-.1-8.1-.3-1.4-.3 14.8m-269.6-26.3c.7.3 1.6.2 1.9-.1.4-.3-.2-.6-1.3-.5-1.1 0-1.4.3-.6.6m374.3.6c-.1 2.9 2.4 8 5.5 11.1 3 2.9 10 6.8 14.4 8 1.4.4-.7-.9-4.6-2.7-7.8-3.7-12.2-8.3-14.1-14.4-.6-2.1-1.2-3-1.2-2m21.1 1.3c1 1 2 1.5 2.4 1.2.3-.4-.5-1.2-1.8-1.8-2.2-1.2-2.2-1.2-.6.6M438.4 157c0 15.1.2 21.3.3 13.7.2-7.5.2-19.9 0-27.5-.1-7.5-.3-1.3-.3 13.8m51 0c0 15.1.2 21.3.3 13.7.2-7.5.2-19.9 0-27.5-.1-7.5-.3-1.3-.3 13.8m30 0c0 15.1.2 21.3.3 13.7.2-7.5.2-19.9 0-27.5-.1-7.5-.3-1.3-.3 13.8m-50 .5c0 14.8.2 21.1.3 13.8.2-7.2.2-19.4 0-27-.1-7.6-.3-1.7-.3 13.2M338.2 135c0 1.4.2 1.9.5 1.2.2-.6.2-1.8 0-2.5-.3-.6-.5-.1-.5 1.3m334.6-1.3c.7.3 1.6.2 1.9-.1.4-.3-.2-.6-1.3-.5-1.1 0-1.4.3-.6.6m4 1c.7.3 1.6.2 1.9-.1.4-.3-.2-.6-1.3-.5-1.1 0-1.4.3-.6.6m4 1c.7.3 1.6.2 1.9-.1.4-.3-.2-.6-1.3-.5-1.1 0-1.4.3-.6.6m9 2.7c8.3 3.1 12.7 6.2 16.2 11.5 3.3 4.9 4.1 4.4 1-.6-1.1-1.8-3.8-4.6-6.1-6.2-4-2.9-13.7-7.2-16.2-7-.7 0 1.6 1.1 5.1 2.3M279.5 144c-1.3.6-1.5.9-.5.9.8 0 2.2-.4 3-.9 1.8-1.2.2-1.2-2.5 0m-4.7 1.7c.7.3 1.6.2 1.9-.1.4-.3-.2-.6-1.3-.5-1.1 0-1.4.3-.6.6m-7.5 1c.9.2 2.5.2 3.5 0 .9-.3.1-.5-1.8-.5s-2.7.2-1.7.5m-22.9 17.8c0 9.9.2 13.8.3 8.7.2-5.1.2-13.2 0-18-.1-4.8-.3-.6-.3 9.3m423.4-14.8c.7.3 1.6.2 1.9-.1.4-.3-.2-.6-1.3-.5-1.1 0-1.4.3-.6.6m-597.4 1.7c-.3.7-.3 4.2-.1 7.7l.3 6.4.2-7.2.2-7.2 15.3-.4 15.2-.3-15.3-.2c-12.1-.2-15.4.1-15.8 1.2m601.4-.7c.7.3 1.6.2 1.9-.1.4-.3-.2-.6-1.3-.5-1.1 0-1.4.3-.6.6m15.5 5.6c1.2 1.3 2.4 2.2 2.6 2 .6-.4-3-4.3-4-4.3-.5 0 .2 1 1.4 2.3m-113.1.7c0 1.4.2 1.9.5 1.2.2-.6.2-1.8 0-2.5-.3-.6-.5-.1-.5 1.3m33.9-.4c0 1.1.3 1.4.6.6.3-.7.2-1.6-.1-1.9-.3-.4-.6.2-.5 1.3m101.2 3.4c0 2.5.2 3.5.4 2.2.2-1.2.2-3.2 0-4.5-.2-1.2-.4-.2-.4 2.3m-103.4 1.6c-.7 1.5-2.9 3.7-4.9 5-1.9 1.3-2.9 2.4-2.3 2.4 2.6 0 10.4-8.3 9-9.6-.2-.2-1 .8-1.8 2.2m-30.9-1c0 3 7.6 9.4 11.2 9.4.7 0-.5-.9-2.8-1.9-2.2-1-5-3.4-6.2-5.2-1.2-1.9-2.2-2.9-2.2-2.3m86 1.7c0 2.1 5.2 7.7 7.2 7.7.7-.1 0-.8-1.5-1.6-1.6-.9-3.5-3-4.2-4.7-.9-2-1.4-2.5-1.5-1.4m-18.9 1.3c0 1.1.3 1.4.6.6.3-.7.2-1.6-.1-1.9-.3-.4-.6.2-.5 1.3M101.5 203c0 22.3.1 31.4.2 20.3.2-11.2.2-29.4 0-40.5-.1-11.2-.2-2.1-.2 20.2m454.1-37.5c.9 4.8 5.2 11.4 9.6 14.5 2.3 1.7 4.6 3 5.1 3 .6 0-1-1.4-3.6-3.1-4.8-3.2-7.7-7-10.2-13.5-1.2-3.2-1.4-3.3-.9-.9m131.2 1.6c-1.5 1.6-2.3 2.9-1.7 2.9 1.2 0 4.9-3.7 4.9-5s0-1.3-3.2 2.1m-43.8-.9c-.2 3.7 6.6 12 12.1 14.9 5.8 2.9 6.1 2.3.4-1-5.9-3.4-7.8-5.4-10.5-10.7-1-2.1-1.9-3.6-2-3.2m63.5 3.9c-2.3 5-8.6 10.5-13.7 12.1-2.1.6-3.6 1.3-3.4 1.6 1.1 1 8.2-2.3 11.8-5.6 3.7-3.3 8.5-10.9 7.5-11.8-.2-.2-1.2 1.4-2.2 3.7m-35.7.6c.7.3 1.6.2 1.9-.1.4-.3-.2-.6-1.3-.5-1.1 0-1.4.3-.6.6m9 0c.6.2 1.8.2 2.5 0 .6-.3.1-.5-1.3-.5s-1.9.2-1.2.5m-51.5 8.3c0 3 .2 4.3.4 2.7.2-1.5.2-3.9 0-5.5-.2-1.5-.4-.2-.4 2.8m-21.9-2.5c-.4.8-2.5 2.6-4.8 4-2.2 1.4-3.6 2.5-2.9 2.5.6 0 3.2-1.6 5.7-3.4 3.8-3 4.5-3.2 4.9-1.8.3 1.2.5 1.1.6-.6.1-2.5-2.6-3.1-3.5-.7m-33.6 7.2c.7.3 1.6.2 1.9-.1.4-.3-.2-.6-1.3-.5-1.1 0-1.4.3-.6.6m89 0c.7.3 1.6.2 1.9-.1.4-.3-.2-.6-1.3-.5-1.1 0-1.4.3-.6.6M24.2 201.2c.2 17.6.6 15.6 1-5.5.2-6.4 0-11.7-.4-11.7-.5 0-.7 7.8-.6 17.2m31.2.8c0 10.2.2 14.3.3 9.2.2-5 .2-13.4 0-18.5-.1-5-.3-.9-.3 9.3m521.4-17.3c.6.2 1.8.2 2.5 0 .6-.3.1-.5-1.3-.5s-1.9.2-1.2.5m14 0c.6.2 1.8.2 2.5 0 .6-.3.1-.5-1.3-.5s-1.9.2-1.2.5m76 0c.7.3 1.6.2 1.9-.1.4-.3-.2-.6-1.3-.5-1.1 0-1.4.3-.6.6m18 0c.6.2 1.8.2 2.5 0 .6-.3.1-.5-1.3-.5s-1.9.2-1.2.5m-11 1c1.2.2 3.2.2 4.5 0 1.2-.2.2-.4-2.3-.4s-3.5.2-2.2.4m-557.6 38.5-.2 18.7-6.7.4-6.8.3 6.8.2c4.7.1 6.9-.2 7.3-1.1.2-.7.3-9.4.1-19.2l-.2-18zM55.3 242c.3 1.2 2.1 1.5 8.3 1.6h7.9l-7.5-.3c-4.2-.2-7.8-.9-8.3-1.6-.6-.8-.7-.8-.4.3m-53.4 1.3c.4.4 5.9.6 12.2.5l11.4-.3-12.2-.5c-6.7-.3-11.9-.1-11.4.3"/></g><path fill="#000040" fill-opacity=".8" d="M.3 153.5c0 3.3.2 4.5.4 2.7s.2-4.5 0-6-.4 0-.4 3.3M55.2 223c0 1.9.2 2.7.5 1.7.2-.9.2-2.5 0-3.5-.3-.9-.5-.1-.5 1.8"/><path fill-opacity=".7" d="M116.2 201c0 1.9.2 2.7.5 1.7.2-.9.2-2.5 0-3.5-.3-.9-.5-.1-.5 1.8"/><path fill="#004040" fill-opacity=".6" d="M.3 108c0 3.6.2 5 .4 3.2.2-1.7.2-4.7 0-6.5-.2-1.7-.4-.3-.4 3.3m752 12.7c3.1.2 8.3.2 11.5 0 3.1-.2.5-.3-5.8-.3s-8.9.1-5.7.3m21 0c2 .2 5.4.2 7.5 0 2-.2.3-.4-3.8-.4s-5.8.2-3.7.4m-98.5 50c.7.3 1.6.2 1.9-.1.4-.3-.2-.6-1.3-.5-1.1 0-1.4.3-.6.6m-558.5 15.8c0 2.2.2 3 .4 1.7.2-1.2.2-3 0-4-.3-.9-.5.1-.4 2.3m-116 9c0 2.2.2 3 .4 1.7.2-1.2.2-3 0-4-.3-.9-.5.1-.4 2.3m-.1 8c0 1.6.2 2.2.5 1.2.2-.9.2-2.3 0-3-.3-.6-.5.1-.5 1.8m-.1 28.1c0 1.1.3 1.4.6.6.3-.7.2-1.6-.1-1.9-.3-.4-.6.2-.5 1.3"/><path fill="#404040" fill-opacity=".5" d="M.1 96.6c0 1.1.3 1.4.6.6.3-.7.2-1.6-.1-1.9-.3-.4-.6.2-.5 1.3M338.2 141c0 1.4.2 1.9.5 1.2.2-.6.2-1.8 0-2.5-.3-.6-.5-.1-.5 1.3m.1 16.5c0 2.2.2 3 .4 1.7.2-1.2.2-3 0-4-.3-.9-.5.1-.4 2.3M116.2 181c0 1.4.2 1.9.5 1.2.2-.6.2-1.8 0-2.5-.3-.6-.5-.1-.5 1.3m-116 7.5c0 1.6.2 2.2.5 1.2.2-.9.2-2.3 0-3-.3-.6-.5.1-.5 1.8m71.1 48c0 2.2.2 3 .4 1.7.2-1.2.2-3 0-4-.3-.9-.5.1-.4 2.3"/><path fill="#408080" fill-opacity=".4" d="M.3 81.5c0 2.7.2 3.8.4 2.2.2-1.5.2-3.7 0-5-.2-1.2-.4 0-.4 2.8M574.4 116c0 7.4.1 10.5.3 6.7.2-3.7.2-9.7 0-13.5-.2-3.7-.3-.6-.3 6.8m-448.6-1.3c2.3.2 6.1.2 8.5 0 2.3-.2.4-.4-4.3-.4s-6.6.2-4.2.4M574.2 136c0 1.9.2 2.7.5 1.7.2-.9.2-2.5 0-3.5-.3-.9-.5-.1-.5 1.8m-.1 13.6c0 1.1.3 1.4.6.6.3-.7.2-1.6-.1-1.9-.3-.4-.6.2-.5 1.3M116.2 171c0 1.4.2 1.9.5 1.2.2-.6.2-1.8 0-2.5-.3-.6-.5-.1-.5 1.3m-45.1 48.6c0 1.1.3 1.4.6.6.3-.7.2-1.6-.1-1.9-.3-.4-.6.2-.5 1.3M25.2 240c0 1.9.2 2.7.5 1.7.2-.9.2-2.5 0-3.5-.3-.9-.5-.1-.5 1.8"/><path fill="gray" fill-opacity=".3" d="M.2 73.5c0 1.6.2 2.2.5 1.2.2-.9.2-2.3 0-3-.3-.6-.5.1-.5 1.8m146 52.5c0 1.9.2 2.7.5 1.7.2-.9.2-2.5 0-3.5-.3-.9-.5-.1-.5 1.8m599 30.5c0 1.6.2 2.2.5 1.2.2-.9.2-2.3 0-3-.3-.6-.5.1-.5 1.8m-629.1 8.1c0 1.1.3 1.4.6.6.3-.7.2-1.6-.1-1.9-.3-.4-.6.2-.5 1.3m-44.8 45.9c0 2.2.2 3 .4 1.7.2-1.2.2-3 0-4-.3-.9-.5.1-.4 2.3"/><path d="M1.7 35.6C.8 80.5.8 167 1.7 167c1.4 0 9.3-5.2 9.3-6.1 0-.6.4-.8.8-.5 1.6 1 33.1-21.8 43.1-31.3 2.8-2.5 5.4-4.8 5.8-5.1s.7-.9.5-1.3q-.15-.75.6-.3c.4.2 8-6.7 16.7-15.5C87.3 98.2 94.2 91 94 91c-.3 0 3.2-3.9 7.8-8.7 4.6-4.9 10-10.8 12-13.2l3.6-4.3-5.3-4.7c-4.3-3.8-5.2-5.1-4.7-6.9.5-1.4 1.2-1.9 2.3-1.5 1 .4 1.4.2 1-.4-.5-.7.1-.9 1.5-.5 1.4.3 1.9.2 1.4-.6s0-1.1 1.1-1c4.1.3 6.4-.2 5.7-1.4-.4-.7-.3-.8.4-.4 1.3.8 19.3-4.4 18.7-5.4-.2-.3 1.5-.6 3.8-.6l4.2.1-.4 10.5c-.2 5.8-.6 14.8-1 20-.6 8.9-.7 9.5-2.8 9.8-1.5.2-3.9-1-6.6-3.2l-4.4-3.6-5.4 6.2c-3 3.4-5.3 6.6-5.2 7 .2.4 0 .7-.5.6-.4-.2-5.6 5-11.5 11.5-6 6.4-10.6 11.7-10.3 11.7s-5 5.2-11.7 11.6c-13.6 13.1-31.8 28.5-42 35.8-3.7 2.6-6.7 5.3-6.7 5.9 0 .5-.3.8-.6.4-.3-.3-4.9 2.3-10.2 5.8-5.4 3.4-13.6 8.2-18.5 10.6L1 186.5l.2 28 .3 28 11.8.3 11.8.3-.7-29.6-.7-29.5H56v59h15.2l-.3-46.3-.4-46.2 15.1-.3 15.1-.3.6 9.8c.4 5.4.7 26.3.7 46.5V243h14.3l-.5-64.5-.5-64.5H147l.2 22 .3 22 5.3-3.6c15.7-10.5 27.8-28.3 32.3-47.1 1.1-4.8 1.9-9.7 1.6-11-.2-1.3 0-2.3.4-2.3 1.7 0 .9-18.1-1.1-28.2-2-9.7-8.3-25.8-10.1-25.8-.5 0-.8-.3-.7-.8.5-1.3-3.6-7.1-4.5-6.5q-.9.45-.3-.6c1-1.5-12-14.3-16.4-16.3-1.6-.7-3-1.6-3-2 0-1.3-13.7-7.1-23-9.6l-9.5-2.6-58.1-.4L2.3.9zm113 137.6c-.3.8-.6.5-.6-.6-.1-1.1.2-1.7.5-1.3.3.3.4 1.2.1 1.9M385.8 69.6c-8.6 4.6-6.9 17.2 2.7 20.4 6.5 2.1 14.5-4.2 14.5-11.4 0-2-1.2-4-3.9-6.7-4.3-4.3-8.4-5-13.3-2.3m427.4.1c-5.7 2.8-7.7 9.4-4.7 15.3 1.7 3.2 6.1 6 9.5 6s7.8-2.8 9.5-6 2.1-9.5.5-8.5c-.5.3-.7 0-.5-.7.3-.8-.6-2.5-2-3.8s-2.5-2-2.5-1.6-.7 0-1.6-.8c-2-2-4-2-8.2.1M725 128v56.1l9.8-.3 9.7-.3.3-22.3.2-22.2h41v-18h-41V90h47V72h-67zm11.8-54.3c-1.6.2-4 .2-5.5 0-1.6-.2-.3-.4 2.7-.4s4.3.2 2.8.4m13.9 0c-2 .2-5.2.2-7 0-1.7-.2 0-.4 3.8-.4 3.9 0 5.3.2 3.2.4m18.1 0c-1 .2-2.6.2-3.5 0-1-.3-.2-.5 1.7-.5s2.7.2 1.8.5M225 128.5v55.6l9.6-.3 9.6-.3-.2-18.3-.1-18.2h9.8c19.9-.1 31-3.1 39.6-11 6.4-5.8 10.7-14.4 11.4-23 .6-6.2-.4-15.3-1.5-14.6-.4.2-.8-.7-.8-2-.3-3.6-6.4-11.5-11.8-15.2-2.7-1.8-5.1-3-5.4-2.8-.2.3-1.1-.1-1.8-.9-3.1-3.1-14.7-4.5-36.8-4.5H225zm49.2-35.8c4.8 2.2 8.8 7 8.8 10.5 0 1 .4 1.8.8 1.8 1.3 0-.5 12.5-2.2 15.9-3.6 6.9-10.3 9.1-27.1 9.1H244V89.8l12.8.4c10.2.3 13.6.8 17.4 2.5m82.1 9.3c-2.3.5-5.4 1.5-7 2.3-3.1 1.7-9.2 7.7-7.7 7.7 1.3 0-1.9 2-3.3 2-.8 0-1.3-2.1-1.5-5.8l-.3-5.7-8.7-.3-8.8-.3V184h19v-25.3c0-22.6.2-25.6 1.9-29.4 2.9-6.3 7.9-9.1 17.9-10.1 4.5-.4 8.2-.4 8.2 0s.7.8 1.5.8c1.2 0 1.5-1.7 1.5-8.9v-8.9l-3.1-.6c-3.6-.7-3.9-.7-9.6.4m94.2.6c-2.2.8-5.6 3-7.5 4.9-4.8 4.7-6 4.5-6-1V102h-18v82h18.9l.3-28.3c.3-27.3.4-28.3 2.6-31.8 5.7-9.3 21.3-9.2 26.7.1 1.9 3.3 2 5.5 2.3 31.7l.3 28.3h18.8l.3-28.4c.3-26.9.4-28.6 2.4-31.2 1.1-1.5 3.1-3.6 4.5-4.5 2.5-1.9 13.2-4.2 12.3-2.8-.3.5.4.9 1.6.9 3 0 7.6 4.9 8.9 9.6.7 2.3 1.1 14.3 1.1 30.1V184h19v-29.9c0-35-.5-37.6-8-45.2-5.3-5.3-11.8-7.9-19.5-7.9-10.2 0-17.2 3.5-22.9 11.5-1.3 1.7-1.7 1.8-4 .6-1.4-.8-2.3-1.7-2.1-2.1.6-.9-6.1-6.9-7.8-7.1-.7-.1-1.8-.1-2.6 0-.7.2-1-.2-.7-.7 1.5-2.4-14.6-2.9-20.9-.6m213.2-.3c-2.3.7-3.5 1.6-3 2.1.4.5.3.6-.4.2-2.7-1.5-10.5 4.7-13.6 10.9-3.9 7.9-2.8 16.7 2.8 23.2 4.1 4.8 11.4 8.3 26.2 12.4 5.9 1.7 11.6 3.7 12.5 4.6 2 1.8 2.4 8.2.8 11.3-1.3 2.5-6.2 4-12.9 4-7 0-12.1-2.4-14.1-6.7l-1.5-3.3-9.5.1c-5.2.1-8.6.4-7.6.6 1.4.4 1.6.7.6 1.3-1.1.7-1.1 1.4 0 4.2 4.8 12.2 18.8 18.9 36.4 17.5 13.4-1.1 21.5-5.7 26.1-14.8 5.2-10.1 2.3-20.4-7.5-27-4.7-3.2-19.6-8.3-21.7-7.5-.7.3-1.3.2-1.3-.2 0-.5-2.3-1.4-5-2.1-5.7-1.5-8-4-8-8.9 0-10.8 22.1-12.8 25.5-2.2.6 1.8 1.5 2 9.5 2h8.9l-.8-2.8c-1.5-5-3.9-8.8-7.7-12.2-4.4-3.8-11.9-7.4-14-6.6-.8.3-1.4.1-1.4-.4 0-1.4-14.6-1.1-19.3.3m-15 60.3c-.3.3-1.2.4-1.9.1-.8-.3-.5-.6.6-.6 1.1-.1 1.7.2 1.3.5M382 143v41h19v-80l-3.7-.1-3.8-.2 4-.7c3-.5 1.6-.8-5.7-.9l-9.8-.1zm173-11.4c0 28.6.8 37.4 3.2 37.4.5 0 .7.4.4.8-.8 1.3 3 6.5 7.1 9.5 3.8 2.8 10.7 5.2 12.3 4.2.5-.3 1.1-.1 1.5.5.3.5 2.3 1 4.3 1 5.4 0 11.2-1.1 10.7-2-.3-.5.4-.6 1.5-.3 1.2.3 2 0 2-.8 0-.7.3-.9.6-.6.9.9 6.4-2.4 7.5-4.6 1.9-3.4 3.9-2 3.9 2.8v4.5h17.8l.4-5.8c.1-3.1.2-21.6 0-41l-.2-35.3-9.3.3-9.2.3-.5 28.7c-.5 27-.6 28.8-2.6 31.4-4 5.4-7 6.8-14.7 7.2-6.2.3-7.7.1-10.7-2-6.7-4.5-7-5.9-7-37.6V102h-19zM808 143v41h19v-82h-19z"/><path fill="#404080" fill-opacity=".4" d="M792.3 81.5c0 4.4.2 6.1.4 3.7.2-2.3.2-5.9 0-8-.2-2-.4-.1-.4 4.3m-646.2 36.1c0 1.1.3 1.4.6.6.3-.7.2-1.6-.1-1.9-.3-.4-.6.2-.5 1.3M574.2 131c0 1.4.2 1.9.5 1.2.2-.6.2-1.8 0-2.5-.3-.6-.5-.1-.5 1.3m-324.5 16.7c1.8.2 5 .2 7 0 2.1-.2.7-.4-3.2-.4-3.8 0-5.5.2-3.8.4M71.3 226c0 3 .2 4.3.4 2.8.2-1.6.2-4 0-5.6-.2-1.5-.4-.2-.4 2.8"/><path fill="#80BFBF" fill-opacity=".1" d="M.3 57.5c0 2.2.2 3 .4 1.7.2-1.2.2-3 0-4-.3-.9-.5.1-.4 2.3M369.2 105c0 1.9.2 2.7.5 1.7.2-.9.2-2.5 0-3.5-.3-.9-.5-.1-.5 1.8m0 7c0 1.9.2 2.7.5 1.7.2-.9.2-2.5 0-3.5-.3-.9-.5-.1-.5 1.8m-222.9 34.5c0 3.3.2 4.5.4 2.7s.2-4.5 0-6-.4 0-.4 3.3m17.6.2c-1.3 1.6-1.2 1.7.4.4s2.1-2.1 1.3-2.1c-.2 0-1 .8-1.7 1.7m-47.7 1.8c0 1.6.2 2.2.5 1.2.2-.9.2-2.3 0-3-.3-.6-.5.1-.5 1.8m-44.9 36c0 4.4.2 6.1.4 3.7.2-2.3.2-5.9 0-8-.2-2-.4-.1-.4 4.3m157.5.2c1.8.2 4.5.2 6 0s0-.4-3.3-.4-4.5.2-2.7.4m10 0c.6.2 1.8.2 2.5 0 .6-.3.1-.5-1.3-.5s-1.9.2-1.2.5m82.5 0c.9.2 2.5.2 3.5 0 .9-.3.1-.5-1.8-.5s-2.7.2-1.7.5m8 0c1.5.2 3.9.2 5.5 0 1.5-.2.2-.4-2.8-.4s-4.3.2-2.7.4m59 0c2.6.2 6.7.2 9 0s.2-.3-4.8-.3c-4.9 0-6.8.1-4.2.3m35 0c2.6.2 6.8.2 9.5 0 2.6-.2.4-.3-4.8-.3s-7.4.1-4.7.3m54 0c2 .2 5.4.2 7.5 0 2-.2.3-.4-3.8-.4s-5.8.2-3.7.4m54 0c.9.2 2.3.2 3 0 .6-.3-.1-.5-1.8-.5-1.6 0-2.2.2-1.2.5m83.5 0c2.3.2 5.9.2 8 0 2-.2.1-.4-4.3-.4s-6.1.2-3.7.4m111 0c.7.3 1.6.2 1.9-.1.4-.3-.2-.6-1.3-.5-1.1 0-1.4.3-.6.6m6.5 0c1.5.2 3.9.2 5.5 0 1.5-.2.2-.4-2.8-.4s-4.3.2-2.7.4m79 0c1.5.2 3.9.2 5.5 0 1.5-.2.2-.4-2.8-.4s-4.3.2-2.7.4m12.5 0c.7.3 1.6.2 1.9-.1.4-.3-.2-.6-1.3-.5-1.1 0-1.4.3-.6.6"/><path fill="#8080BF" fill-opacity=".2" d="M.2 65c0 1.9.2 2.7.5 1.7.2-.9.2-2.5 0-3.5-.3-.9-.5-.1-.5 1.8m421.1 36.7c1.5.2 3.9.2 5.5 0 1.5-.2.2-.4-2.8-.4s-4.3.2-2.7.4m199.5 0c.7.3 1.6.2 1.9-.1.4-.3-.2-.6-1.3-.5-1.1 0-1.4.3-.6.6m4 0c.7.3 1.6.2 1.9-.1.4-.3-.2-.6-1.3-.5-1.1 0-1.4.3-.6.6m186 0c.6.2 1.8.2 2.5 0 .6-.3.1-.5-1.3-.5s-1.9.2-1.2.5m7.5 0c1.5.2 3.9.2 5.5 0 1.5-.2.2-.4-2.8-.4s-4.3.2-2.7.4M116.2 155c0 1.4.2 1.9.5 1.2.2-.6.2-1.8 0-2.5-.3-.6-.5-.1-.5 1.3"/><path fill="#004040" fill-opacity=".7" d="M.3 121c0 2.5.2 3.5.4 2.2.2-1.2.2-3.2 0-4.5-.2-1.2-.4-.2-.4 2.3"/><path fill="gray" fill-opacity=".2" d="M.1 69.6c0 1.1.3 1.4.6.6.3-.7.2-1.6-.1-1.9-.3-.4-.6.2-.5 1.3m745 30c0 1.1.3 1.4.6.6.3-.7.2-1.6-.1-1.9-.3-.4-.6.2-.5 1.3m-424.3 2.1c.6.2 1.8.2 2.5 0 .6-.3.1-.5-1.3-.5s-1.9.2-1.2.5m5 0c.6.2 1.8.2 2.5 0 .6-.3.1-.5-1.3-.5s-1.9.2-1.2.5m7 0c.7.3 1.6.2 1.9-.1.4-.3-.2-.6-1.3-.5-1.1 0-1.4.3-.6.6m49 0c.7.3 1.6.2 1.9-.1.4-.3-.2-.6-1.3-.5-1.1 0-1.4.3-.6.6m11.5 0c1.5.2 3.7.2 5 0 1.2-.2 0-.4-2.8-.4-2.7 0-3.8.2-2.2.4m41.5 0c.7.3 1.6.2 1.9-.1.4-.3-.2-.6-1.3-.5-1.1 0-1.4.3-.6.6m126 0c.7.3 1.6.2 1.9-.1.4-.3-.2-.6-1.3-.5-1.1 0-1.4.3-.6.6m4.5 0c.9.2 2.3.2 3 0 .6-.3-.1-.5-1.8-.5-1.6 0-2.2.2-1.2.5m46 0c.9.2 2.5.2 3.5 0 .9-.3.1-.5-1.8-.5s-2.7.2-1.7.5m6.5 0c.7.3 1.6.2 1.9-.1.4-.3-.2-.6-1.3-.5-1.1 0-1.4.3-.6.6m127.5 6.3c0 3 .2 4.3.4 2.7.2-1.5.2-3.9 0-5.5-.2-1.5-.4-.2-.4 2.8m-.1 8.5c0 1.6.2 2.2.5 1.2.2-.9.2-2.3 0-3-.3-.6-.5.1-.5 1.8M146.3 133c0 2.5.2 3.5.4 2.2.2-1.2.2-3.2 0-4.5-.2-1.2-.4-.2-.4 2.3m608 6.7c4.2.2 11.2.2 15.5 0 4.2-.1.7-.3-7.8-.3s-12 .2-7.7.3m26 0c1.5.2 3.7.2 5 0 1.2-.2 0-.4-2.8-.4-2.7 0-3.8.2-2.2.4m-35.1 2.3c0 1.4.2 1.9.5 1.2.2-.6.2-1.8 0-2.5-.3-.6-.5-.1-.5 1.3m0 10c0 1.4.2 1.9.5 1.2.2-.6.2-1.8 0-2.5-.3-.6-.5-.1-.5 1.3m-629 7c0 1.4.2 1.9.5 1.2.2-.6.2-1.8 0-2.5-.3-.6-.5-.1-.5 1.3m629.2 11.5c0 5.5.1 7.6.3 4.7s.2-7.4 0-10-.3-.2-.3 5.3m-155.6-.8c.7.3 1.6.2 1.9-.1.4-.3-.2-.6-1.3-.5-1.1 0-1.4.3-.6.6M71.2 204.5c0 1.6.2 2.2.5 1.2.2-.9.2-2.3 0-3-.3-.6-.5.1-.5 1.8"/><path fill="#000040" d="M731.3 73.7c1.5.2 3.9.2 5.5 0 1.5-.2.2-.4-2.8-.4s-4.3.2-2.7.4m12.4 0c1.8.2 5 .2 7 0 2.1-.2.7-.4-3.2-.4-3.8 0-5.5.2-3.8.4m21.6 0c.9.2 2.5.2 3.5 0 .9-.3.1-.5-1.8-.5s-2.7.2-1.7.5m-369.5 30c1.2.2 3 .2 4 0 .9-.3-.1-.5-2.3-.4-2.2 0-3 .2-1.7.4m251 59c.7.3 1.6.2 1.9-.1.4-.3-.2-.6-1.3-.5-1.1 0-1.4.3-.6.6m-532.7 9.9c0 1.1.3 1.4.6.6.3-.7.2-1.6-.1-1.9-.3-.4-.6.2-.5 1.3"/><path fill="#8080BF" fill-opacity=".1" d="M729.8 71.7c1.2.2 3.2.2 4.5 0 1.2-.2.2-.4-2.3-.4s-3.5.2-2.2.4m13 0c3.4.2 9 .2 12.5 0 3.4-.2.6-.3-6.3-.3s-9.7.1-6.2.3m24 0c1.7.2 4.7.2 6.5 0 1.7-.2.3-.4-3.3-.4s-5 .2-3.2.4m13 0c1.8.2 4.5.2 6 0s0-.4-3.3-.4-4.5.2-2.7.4m-410.7 44.9c0 1.1.3 1.4.6.6.3-.7.2-1.6-.1-1.9-.3-.4-.6.2-.5 1.3m155.7 68.1c.7.3 1.6.2 1.9-.1.4-.3-.2-.6-1.3-.5-1.1 0-1.4.3-.6.6M25.2 225.5c0 1.6.2 2.2.5 1.2.2-.9.2-2.3 0-3-.3-.6-.5.1-.5 1.8"/><path fill="#408080" fill-opacity=".3" d="M261.8 147.7c.7.3 1.6.2 1.9-.1.4-.3-.2-.6-1.3-.5-1.1 0-1.4.3-.6.6m382 13c.7.3 1.6.2 1.9-.1.4-.3-.2-.6-1.3-.5-1.1 0-1.4.3-.6.6m6.5 0c1.5.2 3.9.2 5.5 0 1.5-.2.2-.4-2.8-.4s-4.3.2-2.7.4m-534.2 6.9c0 1.1.3 1.4.6.6.3-.7.2-1.6-.1-1.9-.3-.4-.6.2-.5 1.3M71.2 216c0 1.4.2 1.9.5 1.2.2-.6.2-1.8 0-2.5-.3-.6-.5-.1-.5 1.3m-46 19c0 1.4.2 1.9.5 1.2.2-.6.2-1.8 0-2.5-.3-.6-.5-.1-.5 1.3"/><path fill="#404080" fill-opacity=".5" d="M.3 91c0 2.5.2 3.5.4 2.2.2-1.2.2-3.2 0-4.5-.2-1.2-.4-.2-.4 2.3m338 58.5c0 2.7.2 3.8.4 2.2.2-1.5.2-3.7 0-5-.2-1.2-.4 0-.4 2.8m0 18.5c0 4.1.2 5.8.4 3.7.2-2 .2-5.4 0-7.5-.2-2-.4-.3-.4 3.8m-222.1 9c0 1.4.2 1.9.5 1.2.2-.6.2-1.8 0-2.5-.3-.6-.5-.1-.5 1.3M.1 236.6c0 1.1.3 1.4.6.6.3-.7.2-1.6-.1-1.9-.3-.4-.6.2-.5 1.3"/></svg>